<?xml version="1.0" encoding="iso-8859-1"?>
<!-- Uploaded to: SVG Repo, www.svgrepo.com, Generator: SVG Repo Mixer Tools -->
<!DOCTYPE svg PUBLIC "-//W3C//DTD SVG 1.1//EN" "http://www.w3.org/Graphics/SVG/1.1/DTD/svg11.dtd">
<svg fill="#000000" version="1.1" id="Capa_1" xmlns="http://www.w3.org/2000/svg" xmlns:xlink="http://www.w3.org/1999/xlink" 
	 width="800px" height="800px" viewBox="0 0 94 94" xml:space="preserve">
<g>
	<path d="M89,0H5C2.239,0,0,2.239,0,5v84c0,2.761,2.239,5,5,5h84c2.762,0,5-2.239,5-5V5C94,2.239,91.762,0,89,0z M8.193,51.064
		h45.215L67.381,8.058L84.748,61.51c-4.657,0-9.562,0-11.003,0c-0.913-2.822-6.364-19.596-6.364-19.596s-5.447,16.773-6.367,19.596
		c-2.959,0-20.598,0-20.598,0s14.27,10.366,16.662,12.108c-0.448,1.38-1.984,6.13-3.443,10.603L8.193,51.064z M78.768,85.941
		l-11.387-8.271l-11.382,8.271l4.347-13.385l-11.381-8.268h14.071l4.345-13.391l4.35,13.391h14.076l-11.385,8.268L78.768,85.941z"/>
</g>
</svg>